<svg width="250" height="250" viewBox="0 0 250 250" fill="none" xmlns="http://www.w3.org/2000/svg">
<path d="M152.119 151.621C156.826 156.423 161.522 161.221 166.206 166.016C146.522 177.197 126.828 188.369 107.124 199.531C86.9189 211.009 66.7122 222.492 46.5039 233.979C42.5684 236.216 38.4863 237.817 33.8086 237.017C32.1338 236.785 30.5418 236.145 29.1726 235.153C27.8034 234.161 26.6992 232.847 25.957 231.328C24.2499 228.107 23.3375 224.524 23.2959 220.879C23.3317 157.002 23.3317 93.125 23.2959 29.2481C23.3413 27.3446 23.6351 25.4553 24.1699 23.6279C26.7969 13.6084 34.502 9.95606 43.7793 14.8389C52.3047 19.2969 60.5957 24.1943 68.9746 28.9404C84.7754 37.8923 100.563 46.8571 116.338 55.835C116.865 56.1781 117.369 56.5549 117.847 56.9629C116.128 57.0557 114.429 57.2168 112.69 57.2266C104.785 57.2754 96.8799 57.1143 88.9844 57.3584C79.8682 57.6367 71.7334 60.7764 64.9854 66.9873C56.9922 74.3506 52.8613 83.7744 50.9619 94.2969C48.7451 106.572 46.3916 118.823 44.5215 131.162C42.9004 142.09 40.8789 153.003 39.0625 163.926C38.0859 169.883 39.5117 175.127 44.0674 179.209C51.0889 185.522 60.0684 185.308 66.8066 178.594C75.7422 169.683 84.5752 160.654 93.3936 151.621C94.0885 150.856 94.9425 150.251 95.8956 149.851C96.8487 149.45 97.878 149.263 98.9111 149.302C100.088 149.302 101.27 149.302 102.451 149.302L110.811 149.341C114.648 149.341 118.486 149.341 122.324 149.341H124.736C128.062 149.341 131.397 149.341 134.722 149.341L143.057 149.316C143.926 149.316 144.79 149.316 145.649 149.316C146.162 149.316 146.665 149.316 147.168 149.351C147.319 149.351 147.48 149.351 147.632 149.385H147.769L148.286 149.438H148.311C149.779 149.745 151.112 150.509 152.119 151.621ZM218.662 114.292C211.533 109.448 203.843 105.503 196.24 101.421C197.425 108.582 198.612 115.744 199.8 122.905C199.966 123.882 200.088 124.858 200.205 125.869C200.265 126.254 200.265 126.646 200.205 127.031C200.483 128.398 200.732 129.766 200.938 131.147C201.641 135.771 202.402 140.381 203.198 144.99C208.496 142.09 213.867 139.282 218.75 135.742C227.5 129.521 227.539 120.308 218.662 114.292Z" fill="#202D40"/>
<path d="M200.923 131.157C200.718 129.775 200.469 128.408 200.19 127.041C200.127 126.743 200.068 126.45 200.01 126.157C200.137 126.03 200.205 125.933 200.205 125.879C200.088 124.902 199.966 123.897 199.8 122.915C198.618 115.754 197.432 108.592 196.24 101.431C194.941 98.3789 194.805 95.083 194.233 91.875C190.61 71.5723 174.097 57.6074 153.516 57.5732C143.066 57.5472 132.617 57.5472 122.168 57.5732C120.703 57.5732 119.238 57.5732 117.886 56.9678C116.167 57.0605 114.468 57.2217 112.729 57.2314C104.824 57.2803 96.919 57.1191 89.0234 57.3633C79.9072 57.6416 71.7725 60.7813 65.0244 66.9922C57.0313 74.3555 52.9004 83.7793 51.001 94.3018C48.7842 106.577 46.4307 118.828 44.5606 131.167C42.9004 142.09 40.8789 153.003 39.0625 163.926C38.086 169.883 39.5117 175.127 44.0674 179.209C51.0889 185.523 60.0684 185.308 66.8067 178.594C75.7422 169.683 84.5752 160.654 93.3936 151.621C94.0885 150.856 94.9425 150.251 95.8956 149.851C96.8487 149.45 97.878 149.263 98.9111 149.302C100.088 149.302 101.27 149.302 102.451 149.302L110.811 149.341C114.648 149.341 118.486 149.341 122.324 149.341H124.736C128.066 149.341 131.395 149.341 134.722 149.341L145.649 149.292H146.626C147.183 149.285 147.739 149.333 148.286 149.434H148.311C149.786 149.731 151.128 150.491 152.144 151.602C156.834 156.416 161.522 161.221 166.206 166.016C177.554 159.577 188.892 153.127 200.22 146.665C201.196 146.099 202.173 145.552 203.184 145.01C202.393 140.391 201.626 135.781 200.923 131.157ZM154.165 79.0479C154.407 79.0508 154.648 79.0688 154.888 79.1016C156.455 79.279 157.898 80.0423 158.927 81.2385C159.955 82.4346 160.494 83.9753 160.435 85.5518C160.361 87.2476 159.626 88.8472 158.388 90.0081C157.149 91.1689 155.506 91.7988 153.809 91.7627C150.547 91.6504 147.524 88.75 147.612 85.8203C147.734 82.0459 149.873 79.4727 153.135 79.1016C153.477 79.0596 153.821 79.0417 154.165 79.0479ZM167.993 105.874C166.298 105.803 164.697 105.08 163.523 103.855C162.35 102.63 161.696 100.998 161.699 99.3018C161.782 95.8545 164.854 92.9004 168.247 92.9883C171.641 93.0762 174.683 96.1963 174.595 99.5459C174.507 102.896 171.353 105.957 167.993 105.874ZM154.023 119.966C152.647 119.96 151.311 119.498 150.225 118.652C149.116 117.856 148.288 116.728 147.861 115.432C147.433 114.135 147.429 112.736 147.847 111.437C148.265 110.137 149.085 109.004 150.188 108.2C151.292 107.396 152.622 106.963 153.987 106.963C155.352 106.963 156.682 107.396 157.785 108.2C158.889 109.004 159.709 110.137 160.127 111.437C160.545 112.736 160.54 114.135 160.113 115.432C159.686 116.728 158.858 117.856 157.749 118.652C156.683 119.483 155.375 119.944 154.023 119.966ZM160.435 113.496C160.412 114.504 160.159 115.493 159.693 116.387C159.227 117.281 158.562 118.056 157.749 118.652H150.225C149.342 118.003 148.64 117.139 148.187 116.141C147.734 115.144 147.543 114.047 147.635 112.955C147.726 111.863 148.095 110.812 148.708 109.904C149.32 108.995 150.155 108.259 151.133 107.765C152.111 107.271 153.2 107.036 154.294 107.083C155.389 107.129 156.454 107.455 157.387 108.03C158.319 108.604 159.089 109.409 159.623 110.366C160.157 111.323 160.436 112.4 160.435 113.496ZM160.435 85.5518C160.361 87.2476 159.626 88.8472 158.388 90.0081C157.149 91.1689 155.506 91.7988 153.809 91.7627C150.547 91.6504 147.524 88.75 147.612 85.8203C147.734 82.0459 149.873 79.4727 153.135 79.1016H154.907C156.471 79.2836 157.909 80.0488 158.934 81.2445C159.958 82.4402 160.494 83.9783 160.435 85.5518ZM174.595 99.5459C174.497 102.939 171.357 105.957 167.998 105.894C166.303 105.823 164.702 105.099 163.528 103.874C162.355 102.649 161.701 101.018 161.704 99.3213C161.787 95.8741 164.858 92.9199 168.252 93.0078C171.645 93.0957 174.683 96.1914 174.59 99.5459H174.595Z" fill="#BDC3C8"/>
<path d="M104.98 93.7501H78.125C74.889 93.7501 72.2656 96.3734 72.2656 99.6094C72.2656 102.845 74.889 105.469 78.125 105.469H104.98C108.217 105.469 110.84 102.845 110.84 99.6094C110.84 96.3734 108.217 93.7501 104.98 93.7501Z" fill="#C0402B"/>
<path d="M85.6934 86.1817V113.037C85.6934 116.273 88.3167 118.897 91.5527 118.897C94.7888 118.897 97.4121 116.273 97.4121 113.037V86.1817C97.4121 82.9457 94.7888 80.3223 91.5527 80.3223C88.3167 80.3223 85.6934 82.9457 85.6934 86.1817Z" fill="#C0402B"/>
<path d="M146.255 99.4971C146.245 101.181 145.574 102.794 144.387 103.988C143.2 105.183 141.591 105.863 139.907 105.884C136.816 105.884 133.11 102.559 133.047 99.7071C132.959 96.1377 136.333 92.8711 140.01 92.9883C141.691 93.0528 143.282 93.7674 144.447 94.9815C145.612 96.1956 146.26 97.8145 146.255 99.4971Z" fill="#0B0D20"/>
<path d="M174.59 99.5459C174.492 102.939 171.348 105.957 167.993 105.894C166.299 105.822 164.698 105.099 163.525 103.875C162.351 102.651 161.695 101.022 161.694 99.3262C161.787 95.8789 164.854 92.92 168.247 93.0079C171.641 93.0958 174.683 96.1914 174.59 99.5459Z" fill="#2E4060"/>
<path d="M147.627 113.516C147.627 111.817 148.302 110.187 149.503 108.986C150.705 107.784 152.334 107.109 154.033 107.109C155.732 107.109 157.362 107.784 158.563 108.986C159.765 110.187 160.439 111.817 160.439 113.516C160.439 116.904 157.398 119.976 154.023 119.98C152.326 119.947 150.707 119.254 149.513 118.046C148.319 116.839 147.642 115.214 147.627 113.516Z" fill="#7F8C8D"/>
<path d="M147.593 85.8252C147.725 81.6505 150.317 78.9893 154.165 79.0479C155.008 79.0494 155.842 79.2203 156.617 79.5507C157.393 79.881 158.094 80.364 158.679 80.9708C159.264 81.5776 159.72 82.2958 160.022 83.0828C160.324 83.8698 160.464 84.7095 160.435 85.5518C160.362 87.2477 159.628 88.8475 158.389 90.0078C157.15 91.1681 155.506 91.7965 153.809 91.7578C150.527 91.6504 147.505 88.75 147.593 85.8252Z" fill="#202D40"/>
</svg>
