<svg width="250" height="250" fill="none" xmlns="http://www.w3.org/2000/svg"><path d="M152.119 151.621c4.707 4.802 9.403 9.6 14.087 14.395a58269.395 58269.395 0 01-59.082 33.515 259533.324 259533.324 0 00-60.62 34.448c-3.936 2.237-8.018 3.838-12.695 3.038a10.313 10.313 0 01-7.852-5.689 22.872 22.872 0 01-2.661-10.449c.036-63.877.036-127.754 0-191.63.045-1.904.34-3.794.874-5.621 2.627-10.02 10.332-13.672 19.61-8.79 8.525 4.459 16.816 9.356 25.195 14.102a27974.66 27974.66 0 0147.363 26.895c.527.343 1.031.72 1.509 1.128-1.719.093-3.418.254-5.157.264-7.905.048-15.81-.113-23.706.131-9.116.279-17.25 3.418-23.999 9.63-7.993 7.363-12.124 16.786-14.023 27.309-2.217 12.275-4.57 24.526-6.44 36.865-1.622 10.928-3.643 21.841-5.46 32.764-.976 5.957.45 11.201 5.005 15.283 7.022 6.313 16.001 6.099 22.74-.615 8.935-8.911 17.768-17.94 26.587-26.973a7.087 7.087 0 015.517-2.319h3.54l8.36.039h23.911l8.335-.025h2.592c.513 0 1.016 0 1.519.035.151 0 .312 0 .464.034h.137l.517.053h.025a7.097 7.097 0 013.808 2.183zm66.543-37.329c-7.129-4.844-14.819-8.789-22.422-12.871 1.185 7.161 2.372 14.323 3.56 21.484.166.977.288 1.953.405 2.964.06.385.06.777 0 1.162.278 1.367.527 2.735.733 4.116a696.17 696.17 0 002.26 13.843c5.298-2.9 10.669-5.708 15.552-9.248 8.75-6.221 8.789-15.434-.088-21.45z" fill="#202D40"/><path d="M200.923 131.157a77.2 77.2 0 00-.733-4.116 69.527 69.527 0 01-.18-.884c.127-.127.195-.224.195-.278a62.323 62.323 0 00-.405-2.964 16023.42 16023.42 0 00-3.56-21.484c-1.299-3.052-1.435-6.348-2.007-9.556-3.623-20.303-20.136-34.268-40.717-34.302a6299.35 6299.35 0 00-31.348 0c-1.465 0-2.93 0-4.282-.605-1.719.092-3.418.254-5.157.263-7.905.05-15.81-.112-23.706.132-9.116.279-17.25 3.418-23.999 9.63-7.993 7.363-12.124 16.786-14.023 27.309-2.217 12.275-4.57 24.526-6.44 36.865-1.66 10.923-3.682 21.836-5.498 32.759-.977 5.957.449 11.201 5.004 15.283 7.022 6.314 16.001 6.099 22.74-.615 8.935-8.911 17.768-17.94 26.587-26.973a7.087 7.087 0 015.517-2.319h3.54l8.36.039h23.911l10.927-.049h.977a8.551 8.551 0 011.66.142h.025a7.092 7.092 0 013.833 2.168c4.69 4.814 9.378 9.619 14.062 14.414a17083.466 17083.466 0 0034.014-19.351c.976-.566 1.953-1.113 2.964-1.655a749.222 749.222 0 01-2.261-13.853zm-46.758-52.11c.242.004.483.022.723.055a6.257 6.257 0 015.547 6.45 6.498 6.498 0 01-6.626 6.21c-3.262-.112-6.285-3.012-6.197-5.942.122-3.774 2.261-6.347 5.523-6.718a7.36 7.36 0 011.03-.054zm13.828 26.827a6.57 6.57 0 01-6.294-6.572c.083-3.448 3.155-6.402 6.548-6.314 3.394.088 6.436 3.208 6.348 6.558-.088 3.35-3.242 6.411-6.602 6.328zm-13.97 14.092a6.225 6.225 0 01-3.798-1.314 6.448 6.448 0 013.762-11.689 6.448 6.448 0 016.14 4.474 6.454 6.454 0 01-2.378 7.215 6.225 6.225 0 01-3.726 1.314zm6.412-6.47a6.577 6.577 0 01-2.686 5.156h-7.524a6.399 6.399 0 01-2.59-5.697 6.403 6.403 0 013.498-5.19 6.408 6.408 0 019.302 5.731zm0-27.944a6.498 6.498 0 01-6.626 6.21c-3.262-.112-6.285-3.012-6.197-5.942.122-3.774 2.261-6.347 5.523-6.718h1.772a6.257 6.257 0 015.528 6.45zm14.16 13.994c-.098 3.393-3.238 6.411-6.597 6.348a6.572 6.572 0 01-6.294-6.573c.083-3.447 3.154-6.401 6.548-6.313 3.393.088 6.431 3.183 6.338 6.538h.005z" fill="#BDC3C8"/><path d="M104.98 93.75H78.125a5.86 5.86 0 100 11.719h26.855a5.86 5.86 0 100-11.719z" fill="#C0402B"/><path d="M85.693 86.182v26.855a5.86 5.86 0 1011.72 0V86.182a5.86 5.86 0 00-11.72 0z" fill="#C0402B"/><path d="M146.255 99.497a6.425 6.425 0 01-6.348 6.387c-3.091 0-6.797-3.325-6.86-6.177-.088-3.57 3.286-6.836 6.963-6.719a6.495 6.495 0 016.245 6.51z" fill="#0B0D20"/><path d="M174.59 99.546c-.098 3.393-3.242 6.411-6.597 6.348a6.575 6.575 0 01-6.299-6.568c.093-3.447 3.16-6.406 6.553-6.318 3.394.088 6.436 3.183 6.343 6.538z" fill="#2E4060"/><path d="M147.627 113.516a6.407 6.407 0 1112.812 0c0 3.388-3.041 6.46-6.416 6.464a6.52 6.52 0 01-6.396-6.464z" fill="#7F8C8D"/><path d="M147.593 85.825c.132-4.175 2.724-6.836 6.572-6.777a6.281 6.281 0 015.857 4.035c.302.787.442 1.627.413 2.469a6.486 6.486 0 01-6.626 6.206c-3.282-.108-6.304-3.008-6.216-5.933z" fill="#202D40"/></svg>