<svg id="Layer_1" version="1.1" viewBox="0 0 48 48" xml:space="preserve" xmlns="http://www.w3.org/2000/svg"><style>.st0{fill:#f9b17b}.st4{fill:#603813}.st9{fill:#8a5d3b}.st10{fill:#a87c4f}.st11{fill:#321b0f}</style><path class="st0" d="M35.59 23.08H12.21c-1.29 0-2.34-1.05-2.34-2.34v-.55c0-1.29 1.05-2.34 2.34-2.34h23.38c1.29 0 2.34 1.05 2.34 2.34v.55c0 1.29-1.05 2.34-2.34 2.34z"/><path fill="#f9ae7b" d="M21.04 30.54h5.94v5.39h-5.94z"/><path d="M24.57 25.99c-.1-.03-.2-.06-.3-.08-.65-.02-1.3 0-1.95.05-.43.08-.86.17-1.28.26v6.58c.88.26 1.6.36 2 .41.38.05.81.08 1.3.06.42-.01.81-.05 1.14-.11.3-.04.85-.13 1.53-.34v-6.46c-.84-.03-1.67-.14-2.44-.37z" fill="#f69164" opacity=".5"/><path class="st0" d="M25.44 31.7c-.34.05-.74.1-1.17.11-.5.01-.94-.02-1.33-.06-1.04-.11-4.22-.59-6.72-3.17a9.799 9.799 0 01-2.41-3.98c-.28-.91-.44-1.88-.44-2.89v-7.47c0-5.36 4.35-9.71 9.71-9.71h1.62c5.36 0 9.71 4.35 9.71 9.71v7.47c-.02.8-.21 4.09-2.84 6.87-2.38 2.51-5.27 3.01-6.13 3.12z"/><path class="st9" d="M24.53 24.92h-.05c-1.69-.35-2.46-.74-2.48-1.26-.02-.35.29-.55.62-.77.29-.19.64-.42.9-.8.4-.62.45-1.48.14-2.58a.23.23 0 01.16-.29c.13-.03.26.04.29.16.35 1.23.28 2.23-.2 2.97-.31.46-.72.74-1.03.94-.18.12-.41.27-.4.35 0 .02.04.4 2.11.82.13.03.21.15.18.28-.03.1-.13.18-.24.18z"/><ellipse class="st11" cx="29.64" cy="20.53" rx="1.08" ry="1.69"/><ellipse class="st11" cx="18.77" cy="20.53" rx="1.08" ry="1.69"/><path class="st10" d="M30.17 26.51c-2.57 0-4.65-2.09-4.65-4.65s2.09-4.65 4.65-4.65c2.57 0 4.65 2.09 4.65 4.65s-2.09 4.65-4.65 4.65zm0-8.83c-2.31 0-4.18 1.88-4.18 4.18s1.88 4.18 4.18 4.18c2.31 0 4.18-1.88 4.18-4.18s-1.88-4.18-4.18-4.18zm-12.3 8.83c-2.57 0-4.65-2.09-4.65-4.65s2.09-4.65 4.65-4.65 4.65 2.09 4.65 4.65-2.09 4.65-4.65 4.65zm0-8.83c-2.31 0-4.18 1.88-4.18 4.18s1.88 4.18 4.18 4.18c2.31 0 4.18-1.88 4.18-4.18s-1.88-4.18-4.18-4.18z"/><path class="st10" d="M22.24 20.88h3.55v.47h-3.55z"/><path class="st9" d="M24.53 27.44c-.75 0-1.3-.34-1.51-.5a.23.23 0 01-.05-.33.23.23 0 01.33-.05c.2.15.74.48 1.48.39.72-.09 1.16-.52 1.32-.7.09-.1.24-.11.33-.02.1.09.11.24.02.33-.19.22-.74.75-1.62.86-.11.01-.21.02-.3.02z"/><path class="st4" d="M31.08 16.09c-.11 0-.21-.04-.3-.11a2.4 2.4 0 00-3.07 0 .476.476 0 01-.61-.73 3.35 3.35 0 014.28 0 .475.475 0 01-.3.84zm-11.22 0c-.11 0-.21-.04-.3-.11a2.4 2.4 0 00-3.07 0 .476.476 0 01-.61-.73 3.35 3.35 0 014.28 0 .475.475 0 01-.3.84z"/><path class="st4" d="M35.34 14.22c-.03-1.03-.08-2.53-.55-3.83-1.41-3.9-6.52-5.8-8.61-6-.68-.4-1.44-.75-2.25-1.04-4.08-1.44-8.07-.66-8.91 1.73-.28.79-.18 1.66.23 2.52-3.22 1.75-5.16 4.05-4.55 5.68.26.7.95 1.18 1.93 1.44 0 .92-.02 1.69-.05 2.37-.03.69-.08 1.7.57 2.39.08.08.15.14.19.18.1.08.39.28.8.28.46-.01.84-.29 1.02-.58.34-.56-.04-1.22-.26-2.05-.15-.56-.26-1.34-.14-2.35 1.68-.01 3.71-.4 5.8-1.18.94-.35 1.81-.75 2.61-1.19.42.07.84.11 1.24.13.67 1.29 1.79 2.14 3.06 2.14 1.84 0 3.36-1.78 3.67-4.12.27.23.81.7 1.24 1.5.35.65.55 1.4.58 3.31.02 1.03-.01 2.39-.19 4 .06.06.39.43.94.45.55.03.91-.3.97-.36.36-1.24.74-3.12.66-5.42z"/><path d="M35.5 37.99c-2.24-.96-5.95-2.23-10.7-2.4-4.69-.17-8.44.79-10.74 1.58-.74.22-2.21.78-3.58 2.14a8.64 8.64 0 00-2.13 3.51c-.25.81-.39 1.66-.39 2.55h32.05c-.01-.83-.17-3.89-2.51-6.06a7.246 7.246 0 00-2-1.32z" fill="#404041"/><path d="M28.01 35.88c.11-.1.18-.25.18-.41v-.52a.57.57 0 00-.57-.57h-7.18a.57.57 0 00-.57.57v.52c0 .1.03.2.08.28-.43.06-.89.13-1.36.22-.5.09-.97.2-1.41.31.17.26 2.54 3.76 6.93 3.76 4.24-.01 6.6-3.3 6.8-3.59-.86-.21-1.83-.41-2.9-.57z" fill="#929497"/></svg>