<svg id="Layer_1" version="1.1" viewBox="0 0 48 48" xml:space="preserve" xmlns="http://www.w3.org/2000/svg"><style>.st0{fill:#f9b17b}.st11{fill:#321b0f}.st29{fill:#ee4036}.st30{fill:#fded16}</style><path class="st29" d="M36.6 23.39c.65.91-.32 1.8.26 3.25.52 1.3 1.61 1.34 1.99 2.77.14.53.18 1.23 0 1.69-.95 2.44-10.07 3.22-11.61-.04-1.3-2.75 2.85-8.21 6.63-8.49.32-.03 2.04-.15 2.73.82zm-16.72 0c.65.91-.32 1.8.26 3.25.52 1.3 1.61 1.34 1.99 2.77.14.53.18 1.23 0 1.69-.95 2.44-10.07 3.22-11.61-.04-1.3-2.75 2.85-8.21 6.63-8.49.32-.03 2.04-.15 2.73.82z"/><path class="st0" d="M35.73 24.22H12.35c-1.29 0-2.34-1.05-2.34-2.34v-.55c0-1.29 1.05-2.34 2.34-2.34h23.38c1.29 0 2.34 1.05 2.34 2.34v.55c0 1.29-1.05 2.34-2.34 2.34z"/><path fill="#f9ae7b" d="M21.18 31.68h5.94v5.39h-5.94z"/><path d="M24.71 27.12c-.1-.03-.2-.06-.3-.08-.65-.02-1.3 0-1.95.05-.43.08-.86.17-1.28.26v6.58c.88.26 1.6.36 2 .41.38.05.81.08 1.3.06.42-.01.81-.05 1.14-.11.3-.04.85-.13 1.53-.34V27.5c-.84-.03-1.67-.15-2.44-.38z" fill="#d5855b" opacity=".5"/><path class="st0" d="M25.58 32.84c-.34.05-.74.1-1.17.11-.5.01-.94-.02-1.33-.06-1.04-.11-4.22-.59-6.72-3.17a9.799 9.799 0 01-2.41-3.98c-.28-.91-.44-1.88-.44-2.89v-7.47c0-5.36 4.35-9.71 9.71-9.71h1.62c5.36 0 9.71 4.35 9.71 9.71v7.47c-.02.8-.21 4.09-2.84 6.87-2.38 2.5-5.27 3-6.13 3.12z"/><path d="M24.67 26.06h-.05c-1.69-.35-2.46-.74-2.48-1.26-.02-.35.29-.55.62-.77.29-.19.64-.42.9-.8.4-.62.45-1.48.14-2.58a.23.23 0 01.16-.29c.13-.04.26.04.29.16.35 1.23.28 2.23-.2 2.97-.31.46-.72.74-1.03.94-.18.12-.41.27-.4.35 0 .04.08.4 2.11.82.13.03.21.15.18.28-.03.1-.13.18-.24.18z" fill="#8a5d3b"/><ellipse class="st11" cx="29.78" cy="21.66" rx="1.08" ry="1.69"/><ellipse class="st11" cx="18.91" cy="21.66" rx="1.08" ry="1.69"/><path d="M25.55 27.97c-.26.03-1.05.1-2.06 0-.52-.05-1.17-.16-1.9-.37.11.15 1.14 1.42 2.9 1.4 1.69-.02 2.68-1.23 2.8-1.39-.44.14-1.03.28-1.74.36z" fill="#fff"/><path class="st29" d="M36.8 11.97c-.44-2.01-1.46-3.42-1.94-4.08-.29-.39-1.32-1.74-3.12-2.95-3.69-2.47-7.67-2.34-9.76-2.28-1.34.04-3.24.12-5.46 1.04-.3.12-1.71.72-3.31 1.95-.93.71-2.08 1.59-2.92 2.92-1.49 2.35-1.32 4.95-1.14 6.21.02.71.22 2.16 1.18 3.57 1.48 2.18 3.78 3.21 5.12 2.3.78-.53 1.07-1.59.89-2.81.43.08.88.12 1.35.12 3 0 5.44-1.79 5.44-4v-.05a3.209 3.209 0 001.92.63c.79 0 1.97-.68 3-1.91.09-.02.24-.04.41-.06.6-.05 1.06.07 2.58.48.23.06.41.11.54.15.08 1.12.45 4.06 2.56 5.8.5.42.76.48.97.45 1.34-.12 2.43-4.12 1.69-7.48z"/><path class="st29" d="M27.87 18.16c.35.28.98.07 2.34.29 1.28.21 1.99.6 2.18.47.18-.12-.3-.54-.37-.6-.58-.49-1.43-.7-2.19-.87-.88-.2-1.38-.31-1.75-.16-.4.18-.52.63-.21.87z"/><path d="M30.61 21.11c-.27 0-.48-.07-.56-.1a.24.24 0 01-.13-.31.24.24 0 01.31-.13c.09.04.43.15.79-.02.35-.16.49-.47.53-.56.05-.12.18-.18.3-.14.12.05.18.18.14.3-.07.17-.27.6-.77.82-.22.11-.43.14-.61.14zm-12.66.1c-.18 0-.39-.03-.6-.13-.5-.23-.71-.65-.77-.82a.23.23 0 01.14-.3c.12-.05.26.01.3.14.03.09.18.4.53.56.36.16.7.05.79.02.12-.05.26.01.31.13a.24.24 0 01-.13.31c-.1.02-.3.09-.57.09z" fill="#3b2314"/><path class="st0" d="M35.5 37.98c-2.24-.96-5.95-2.23-10.7-2.4-4.69-.17-8.44.79-10.74 1.58-.74.22-2.21.78-3.58 2.14a8.64 8.64 0 00-2.13 3.51c-.25.81-.39 1.66-.39 2.55h32.05c-.01-.83-.17-3.89-2.51-6.06a7.026 7.026 0 00-2-1.32z"/><path d="M9.68 40.09a8.605 8.605 0 00-1.71 5.14h32.05c-.01-.72-.13-3.1-1.67-5.14H9.68z" fill="#f6921e"/><circle class="st30" cx="34.65" cy="23.94" r=".57"/><circle class="st30" cx="13.41" cy="23.97" r=".6"/></svg>