<svg data-name="Layer 1" id="Layer_1" viewBox="0 0 764.7 745.1" xmlns="http://www.w3.org/2000/svg"><defs><style>.cls-1{fill:#ff78b2}</style></defs><path class="cls-1" d="M588.24 117.65h-39.22v19.61h-19.61v58.82h19.61v19.61h39.22v-19.61h19.61v-58.82h-19.61v-19.61z"/><path class="cls-1" d="M591.66 433.07v-19.61h-19.6v-39.21h-19.61v-19.61h-19.61V335h-39.21v-19.6H317.15V335h-39.21v19.61h-19.61v19.61h-19.61v39.21h-19.6v39.22h-19.61v98h19.61v39.22h19.6v39.21h19.61v19.61h39.22v19.61h19.6V688h176.48v-19.6h19.6v-19.64h39.22v-19.61h19.61v-39.21h19.6v-39.22h19.61v-98h-19.61zM454.41 609.54H336.76v-19.6h-19.61v-39.22h-19.6v-98h19.6v-39.26h19.61v-19.6h19.61v-19.61h98v19.61H474v19.6h19.61v39.22h19.6v98h-19.6v39.22H474v19.6z" transform="translate(-23.04 -138.95)"/><path class="cls-1" d="M768.14 276.21V237h-19.61v-19.6h-19.61v-19.62h-19.61v-19.61H689.7v-19.61h-39.21V139h-490.2v19.61h-39.21v19.61h-19.61v19.61H81.86v19.61H62.25V237H42.64v39.22H23v451h19.6v19.58h19.65V786h19.61v19.61h19.61v19.61h19.61v19.61h39.21v19.61h19.61v19.6h451v-19.6h19.61v-19.6h39.19v-19.61h19.61v-19.61h19.61V786h19.61v-39.2h19.61v-19.61h19.6v-451zm-39.22 431.37h-19.61v19.61H689.7v19.61h-19.6v19.61h-19.61V786h-19.61v19.61h-19.61v19.61H199.51v-19.6H179.9V786h-19.61v-19.6h-19.61v-19.6h-19.6v-19.61h-19.61v-19.61H81.86V295.82h19.61v-19.61h19.61V256.6h19.6V237h19.61v-19.6h19.61v-19.62h451v19.61h19.61V237h19.59v19.6h19.6v19.61h19.61v19.61h19.61z" transform="translate(-23.04 -138.95)"/></svg>