<?xml version="1.0" ?><svg viewBox="0 0 512 512" xmlns="http://www.w3.org/2000/svg"><defs><style>.cls-1{fill:#202d40;}.cls-2{fill:#bdc3c8;}.cls-3{fill:#c0402b;}.cls-4{fill:#0b0d20;}.cls-5{fill:#2e4060;}.cls-6{fill:#7f8c8d;}</style></defs><title/><g id="Google"><g data-name="Gplay games" id="Gplay_games"><path class="cls-1" d="M311.54,310.52Q326,325.27,340.39,340q-60.47,34.35-121,68.64Q157.32,443.9,95.24,479.19c-8.06,4.58-16.42,7.86-26,6.22a21.12,21.12,0,0,1-16.08-11.65,46.84,46.84,0,0,1-5.45-21.4q.11-196.23,0-392.46a44.78,44.78,0,0,1,1.79-11.51c5.38-20.52,21.16-28,40.16-18,17.46,9.13,34.44,19.16,51.6,28.88q48.54,27.5,97,55.08a29.92,29.92,0,0,1,3.09,2.31c-3.52.19-7,.52-10.56.54-16.19.1-32.38-.23-48.55.27-18.67.57-35.33,7-49.15,19.72-16.37,15.08-24.83,34.38-28.72,55.93-4.54,25.14-9.36,50.23-13.19,75.5C87.86,291,83.72,313.35,80,335.72c-2,12.2.92,22.94,10.25,31.3,14.38,12.93,32.77,12.49,46.57-1.26,18.3-18.25,36.39-36.74,54.45-55.24a14.52,14.52,0,0,1,11.3-4.75c2.41,0,4.83,0,7.25,0l17.12.08q11.79,0,23.58,0h4.94c6.81,0,13.64,0,20.45,0l17.07-.05c1.78,0,3.55,0,5.31,0,1.05,0,2.08,0,3.11.07.31,0,.64,0,.95.07l.28,0,1.06.11.05,0A14.53,14.53,0,0,1,311.54,310.52Zm136.28-76.45c-14.6-9.92-30.35-18-45.92-26.36q3.64,22,7.29,44c.34,2,.59,4,.83,6.07h0a7.79,7.79,0,0,1,0,2.38c.57,2.8,1.08,5.6,1.5,8.43,1.44,9.47,3,18.91,4.63,28.35C427,291,438,285.25,448,278,465.92,265.26,466,246.39,447.82,234.07Z"/><path class="cls-2" d="M411.49,268.61c-.42-2.83-.93-5.63-1.5-8.43-.13-.61-.25-1.21-.37-1.81.26-.26.4-.46.4-.57h0c-.24-2-.49-4.06-.83-6.07q-3.63-22-7.29-44c-2.66-6.25-2.94-13-4.11-19.57-7.42-41.58-41.24-70.18-83.39-70.25q-32.1-.08-64.2,0c-3,0-6,0-8.77-1.24-3.52.19-7,.52-10.56.54-16.19.1-32.38-.23-48.55.27-18.67.57-35.33,7-49.15,19.72-16.37,15.08-24.83,34.38-28.72,55.93-4.54,25.14-9.36,50.23-13.19,75.5C87.86,291,83.72,313.35,80,335.72c-2,12.2.92,22.94,10.25,31.3,14.38,12.93,32.77,12.49,46.57-1.26,18.3-18.25,36.39-36.74,54.45-55.24a14.52,14.52,0,0,1,11.3-4.75c2.41,0,4.83,0,7.25,0l17.12.08q11.79,0,23.58,0h4.94q10.23,0,20.45,0l22.38-.1,2,0a17.51,17.51,0,0,1,3.4.29l.05,0a14.53,14.53,0,0,1,7.85,4.44Q326,325.27,340.39,340q34.86-19.78,69.66-39.63c2-1.16,4-2.28,6.07-3.39C414.5,287.52,412.93,278.08,411.49,268.61ZM315.73,161.89a12,12,0,0,1,1.48.11,12.81,12.81,0,0,1,11.36,13.21A13.3,13.3,0,0,1,315,187.93c-6.68-.23-12.87-6.17-12.69-12.17.25-7.73,4.63-13,11.31-13.76A15.1,15.1,0,0,1,315.73,161.89Zm28.32,54.94a13.45,13.45,0,0,1-12.89-13.46c.17-7.06,6.46-13.11,13.41-12.93s13.18,6.57,13,13.43S350.93,217,344.05,216.83Zm-28.61,28.86a12.76,12.76,0,0,1-7.78-2.69,13.21,13.21,0,1,1,15.41,0A12.74,12.74,0,0,1,315.44,245.69Zm13.13-13.25a13.46,13.46,0,0,1-5.5,10.56H307.66a13.13,13.13,0,1,1,20.91-10.56Zm0-57.23A13.3,13.3,0,0,1,315,187.93c-6.68-.23-12.87-6.17-12.69-12.17.25-7.73,4.63-13,11.31-13.76h3.63A12.81,12.81,0,0,1,328.57,175.21Zm29,28.66c-.2,6.95-6.63,13.13-13.51,13a13.45,13.45,0,0,1-12.89-13.46c.17-7.06,6.46-13.11,13.41-12.93S357.75,197,357.56,203.87Z"/><g data-name="+" id="_"><rect class="cls-3" height="24" rx="12" width="79" x="148" y="192"/><rect class="cls-3" height="24" rx="12" transform="translate(-16.5 391.5) rotate(-90)" width="79" x="148" y="192"/></g><path class="cls-4" d="M299.53,203.77a13.16,13.16,0,0,1-13,13.08c-6.33,0-13.92-6.81-14.05-12.65-.18-7.31,6.73-14,14.26-13.76A13.3,13.3,0,0,1,299.53,203.77Z"/><path class="cls-5" d="M357.56,203.87c-.2,6.95-6.64,13.13-13.51,13a13.47,13.47,0,0,1-12.9-13.45c.19-7.06,6.47-13.12,13.42-12.94S357.75,197,357.56,203.87Z"/><path class="cls-6" d="M302.34,232.48a13.12,13.12,0,1,1,26.24,0c0,6.94-6.23,13.23-13.14,13.24A13.36,13.36,0,0,1,302.34,232.48Z"/><path class="cls-1" d="M302.27,175.77c.27-8.55,5.58-14,13.46-13.88a12.87,12.87,0,0,1,12.84,13.32A13.28,13.28,0,0,1,315,187.92C308.28,187.7,302.09,181.76,302.27,175.77Z"/></g></g></svg>