<svg data-name="Layer 1" id="Layer_1" viewBox="0 0 823.53 686.28" xmlns="http://www.w3.org/2000/svg"><defs><style>.cls-1{fill:#52c1ff}</style></defs><path class="cls-1" d="M803.92 78.43h19.61v19.61h-19.61z"/><path class="cls-1" d="M764.71 98.04H745.1V78.43h19.61v-19.6h19.6V19.61h-19.6v19.61h-39.22v19.61h-39.22V39.22h-19.6V19.61h-39.22V0H509.8v19.61h-19.6v19.61h-39.22v19.61h-19.61v19.6h-19.61v39.22h-19.6v78.43h-78.44v-19.61h-78.43v-19.6h-39.21v-19.61h-19.61v-19.61h-39.22V98.04h-19.6V78.43H98.04v-19.6H78.43V39.22H58.82v19.61H39.21v137.25h19.61v39.22h19.61v19.6H58.82v-19.6H39.21v78.43h19.61v19.61h19.61v19.6h19.61v19.61h19.61v19.61h39.21v19.61H98.04v39.21h19.61v19.61h19.6v19.61h19.61v19.61h39.22v19.6h39.21v19.61h-39.21v19.61h-58.83v19.61H0v19.61h39.21v19.6h19.61v19.61h58.83v19.61h98.04v19.61h98.03v-19.61h78.44v-19.61h58.82v-19.61h39.22v-19.6h39.21v-19.61h19.61v-19.61h19.61v-19.61h39.21v-39.21h19.61V490.2h19.61v-19.61h19.61v-39.21h19.6v-19.61h19.61v-58.83h19.61v-58.82h19.61V156.87h19.61v-19.61h19.6v-19.61h19.61V98.04h-39.21z"/></svg>